<mxfile host="app.diagrams.net" modified="2023-11-16T19:25:18.694Z" agent="Mozilla/5.0 (X11; Linux x86_64; rv:109.0) Gecko/20100101 Firefox/119.0" version="22.1.2" etag="CpdRJU1ScmGPw2vYLuS4" type="github">
  <diagram name="Page-1" id="xoMocRnNaZW1iUaZpFag">
    <mxGraphModel>
      <root>
        <mxCell id="0" />
        <mxCell id="1" parent="0" />
      </root>
    </mxGraphModel>
  </diagram>
</mxfile>
